<svg width="231px" height="33px" viewBox="0 0 231 33" version="1.1" xmlns="http://www.w3.org/2000/svg" xmlns:xlink="http://www.w3.org/1999/xlink">
    <defs>
        <polygon id="path-1" points="0.0260399418 0.109145241 21.8534289 0.109145241 21.8534289 32.7195467 0.0260399418 32.7195467"></polygon>
        <polygon id="path-3" points="0.0531147309 0.108890652 21.3911671 0.108890652 21.3911671 32.3273921 0.0531147309 32.3273921"></polygon>
    </defs>
    <g id="Full-Size-Pages" stroke="none" stroke-width="1" fill="none" fill-rule="evenodd">
        <g id="Resources" transform="translate(-42.000000, -12.000000)">
            <g id="Menu" transform="translate(0.000000, 12.000000)">
                <g id="Page-1" transform="translate(42.000000, 0.000000)">
                    <path d="M17.9231351,32.62093 L10.2706875,32.62093 C9.27077819,27.2904796 8.5915204,21.7696014 7.2487102,16.5115703 C5.77109547,10.7245731 1.73437592,6.11613399 2.18130312e-05,0.402428612 L5.65243258,0.402428612 C6.89163088,4.53403484 9.18876119,7.82082238 11.0629368,11.641811 C12.8184496,15.2211113 13.3672654,18.9921482 14.0969113,22.8816297 C14.8047442,19.1097204 15.7187102,15.4944286 15.2558377,11.641811 C14.7894751,7.75669207 13.8292654,4.37283654 14.0875317,0.402428612 L19.7399425,0.402428612 C19.3880983,5.88578839 21.5491153,11.0567856 20.9161011,16.5115703 C20.2920303,21.8882643 18.9212994,27.2996411 17.9231351,32.62093" id="Fill-1" fill="#000000"></path>
                    <path d="M46.9654411,32.62093 L41.3564382,32.62093 C41.3924297,28.1839414 41.2410473,23.7524059 41.1832428,19.3162898 L33.2690388,19.3162898 L33.2690388,32.62093 L27.660036,32.62093 C27.660036,27.297896 28.0027187,21.8204258 27.6310246,16.5115703 C27.2370813,10.8840263 24.1245799,6.00466941 23.4331068,0.402428612 L29.0423278,0.402428612 C29.5503533,5.10139178 31.613866,9.21053059 32.9294099,13.7070688 L40.8433958,13.7070688 C39.5898008,9.22165524 37.6711266,5.06125581 37.1295091,0.402428612 L42.7385119,0.402428612 C43.3525487,5.90694703 45.7125006,10.9896014 46.1014269,16.5115703 C46.4772654,21.8498734 46.901747,27.2686666 46.9654411,32.62093" id="Fill-3" fill="#000000"></path>
                    <path d="M60.1613652,26.9684975 C62.1886683,27.0127779 63.3563198,25.5820612 62.6740082,23.7944833 C61.4638212,20.625268 56.7251584,19.5420329 54.029504,17.8379989 C51.3687504,16.155996 49.6697334,12.634064 48.904096,9.70697337 C47.5104615,4.38023116 51.711215,0.398044193 56.9101329,0.402406799 C62.1727448,0.406551275 66.6058071,4.83285156 66.6062433,10.0982992 L61.2243142,10.0982992 C61.0105465,7.95386006 59.3243992,6.0831745 57.1304445,6.05481756 C55.0435918,6.02798754 53.6636994,7.30819433 54.0894898,9.31564759 C54.6614275,12.0134833 58.7520252,13.4572878 60.9865521,14.7942085 C64.1470422,16.684962 66.8385521,19.9553898 68.2651244,23.4033756 C70.4246144,28.6223615 66.3021697,32.6416306 61.137062,32.6209082 C55.8181725,32.5995314 51.2697193,28.1025569 50.4772518,22.9684238 L55.4183397,22.9684238 C56.0317221,25.0982482 57.931419,26.9198544 60.1613652,26.9684975" id="Fill-5" fill="#000000"></path>
                    <path d="M91.2854195,7.91446572 C92.0975187,12.0971144 92.1324195,15.219868 91.1207312,19.3931371 L96.7295159,19.3931371 C95.7149918,14.9382618 93.8480144,11.6519105 91.2854195,7.91446572 Z M89.8163119,24.6108142 C89.1641023,27.292072 88.5121108,29.9733297 87.859683,32.6545875 L82.2074904,32.6545875 C83.5047113,27.3433326 85.2229238,21.9384997 86.1111504,16.5452278 C87.0070116,11.107021 84.7716122,5.9166102 85.2493176,0.436086119 L92.901547,0.436086119 C95.1663941,6.19407195 99.7855215,10.636732 101.664714,16.5452278 C103.327303,21.7733751 104.298638,27.328936 105.599567,32.6545875 L99.9471561,32.6545875 C99.2949465,29.9733297 98.6427368,27.292072 97.9905272,24.6108142 L89.8163119,24.6108142 Z" id="Fill-7" fill="#000000"></path>
                    <path d="M114.43908,15.3494374 L118.395963,15.3494374 C120.608241,15.3062476 122.224369,13.4800606 121.403762,11.3493637 C121.216388,10.8624969 121.11583,10.6188453 120.909479,10.1319785 C119.831697,7.91163003 117.569031,6.20541473 115.064241,6.08849688 L111.107357,6.08849688 C112.444714,9.17155071 113.711615,12.059596 114.43908,15.3494374 Z M114.510626,20.9586584 L114.510626,32.6545875 L108.858216,32.6545875 C108.858216,27.3415875 109.235581,21.8412136 108.827023,16.5452278 C108.387927,10.8539898 104.914856,6.06690198 104.030119,0.436086119 L113.639196,0.436086119 C119.074349,0.530100283 124.515827,5.25327592 126.56189,10.1319785 C126.768241,10.6188453 126.868799,10.8624969 127.056173,11.3493637 C128.764133,14.8802391 125.790799,18.3642164 122.858692,19.9151229 L128.424286,32.6545875 L121.946034,32.6545875 C120.235675,28.7559445 118.525315,24.8573014 116.815173,20.9586584 L114.510626,20.9586584 Z" id="Fill-9" fill="#000000"></path>
                    <g id="Group-13" transform="translate(129.569405, 0.109065)">
                        <mask id="mask-2" fill="white">
                            <use xlink:href="#path-1"></use>
                        </mask>
                        <g id="Clip-12"></g>
                        <path d="M14.4819331,9.84888895 C13.3976074,7.65318924 11.06863,5.80475297 8.66592465,5.76199943 C6.59128725,5.72491728 5.50892465,7.67500227 6.4383779,9.84888895 C8.20261586,14.3951609 8.15724476,18.3167076 8.15724476,23.1103394 C8.15353654,25.3740958 9.93238924,27.1575292 12.1575365,27.110413 C14.3037207,27.0652601 16.1486669,25.3136737 16.2010181,23.1103394 L16.2010181,19.8495093 L21.8534289,19.8495093 L21.8534289,23.1103394 C21.8447037,28.3692431 17.3848113,32.721379 12.1575365,32.719634 C6.95381983,32.7176708 2.55762153,28.3216907 2.54824193,23.1103394 C2.54824193,18.3167076 2.59361303,14.3951609 0.829375071,9.84888895 C-1.61608385,4.68639887 1.79874618,0.0570192635 7.32682266,0.109588669 C12.7163864,0.160631161 18.0863184,5.00988612 20.1343439,9.84888895 C20.6772703,11.1186255 20.9416442,11.7533847 21.3133382,13.0233394 L15.6609275,13.0233394 C15.2892334,11.7533847 15.0248595,11.1186255 14.4819331,9.84888895" id="Fill-11" fill="#000000" mask="url(#mask-2)"></path>
                    </g>
                    <path d="M175.508739,32.6545657 L169.899737,32.6545657 L169.899737,19.3499255 L161.812337,19.3499255 L161.812337,32.6545657 L156.203334,32.6545657 C156.203334,27.3415657 156.5807,21.8411918 156.172142,16.5452059 C155.733263,10.853968 152.259975,6.06688017 151.375238,0.436064306 L156.984241,0.436064306 C157.650629,5.17603598 159.966082,9.23195099 161.438462,13.7407045 L169.525643,13.7407045 C168.053263,9.23195099 165.738028,5.17603598 165.071422,0.436064306 L170.680643,0.436064306 C171.56538,6.06688017 175.038669,10.853968 175.477547,16.5452059 C175.885887,21.8411918 175.508739,27.3415657 175.508739,32.6545657" id="Fill-14" fill="#000000"></path>
                    <path d="M176.504068,0.436042493 L182.156479,0.436042493 C183.041215,6.06685836 186.514504,10.8539462 186.953382,16.5454023 C187.361941,21.84117 186.984575,27.3415439 186.984575,32.6545439 L181.332164,32.6545439 C181.332164,27.3415439 181.70953,21.84117 181.300972,16.5454023 C180.862093,10.8539462 177.388805,6.06685836 176.504068,0.436042493" id="Fill-16" fill="#000000"></path>
                    <path d="M204.549257,32.6545657 L196.896809,32.6545657 C195.898427,27.3321861 195.248398,21.7877499 193.874832,16.5452059 C192.336795,10.674883 187.956956,6.17463654 186.024758,0.436064306 L191.677169,0.436064306 C193.066005,4.61042408 195.568614,7.83788017 197.586973,11.6754467 C199.458095,15.2331521 199.98837,18.9998263 200.723033,22.9152654 C201.432393,19.1335402 202.379514,15.529155 201.776602,11.6754467 C201.16671,7.7776762 199.986189,4.45402465 200.112268,0.436064306 L205.764679,0.436064306 C205.596718,5.95476119 208.136846,11.0461408 207.539823,16.5452059 C206.956761,21.9153561 205.54524,27.3439652 204.549257,32.6545657" id="Fill-18" fill="#000000"></path>
                    <g id="Group-22" transform="translate(209.405099, 0.327195)">
                        <mask id="mask-4" fill="white">
                            <use xlink:href="#path-3"></use>
                        </mask>
                        <g id="Clip-21"></g>
                        <path d="M10.1163385,13.4135309 L20.9862082,13.4135309 C21.5507295,15.6572193 21.3603017,16.7790635 21.3603017,19.0227518 L10.490432,19.0227518 L10.490432,26.6749813 L21.3603017,26.6749813 L21.3603017,32.3273921 L4.88121105,32.3273921 C4.88121105,27.0143921 5.25857649,21.5140181 4.85001841,16.2180323 C4.41114023,10.5267943 0.938069405,5.73970652 0.0531147309,0.108890652 L16.5322054,0.108890652 C16.5849929,2.36981133 17.0310694,3.50038074 17.9570326,5.76130142 L7.08716289,5.76130142 C8.1645085,8.28354221 9.3943272,10.7564856 10.1163385,13.4135309" id="Fill-20" fill="#000000" mask="url(#mask-4)"></path>
                    </g>
                </g>
            </g>
        </g>
    </g>
</svg>
